<svg xmlns="http://www.w3.org/2000/svg" xmlns:xlink="http://www.w3.org/1999/xlink" width="500" zoomAndPan="magnify" viewBox="0 0 375 374.999991" height="500" preserveAspectRatio="xMidYMid meet" version="1.2"><defs><clipPath id="81946b59b4"><path d="M 7 54 L 369 54 L 369 330 L 7 330 Z M 7 54 "/></clipPath><clipPath id="74837f19e9"><path d="M 418.867188 321.851562 L 53.675781 425.070312 L -37.097656 103.898438 L 328.09375 0.683594 Z M 418.867188 321.851562 "/></clipPath><clipPath id="8f29239089"><path d="M 418.867188 321.851562 L 53.675781 425.070312 L -37.097656 103.898438 L 328.09375 0.683594 Z M 418.867188 321.851562 "/></clipPath><clipPath id="ce8d14d0ff"><path d="M 95 96 L 285 96 L 285 330.703125 L 95 330.703125 Z M 95 96 "/></clipPath><filter x="0%" y="0%" width="100%" filterUnits="objectBoundingBox" id="42a1a1a144" height="100%"><feColorMatrix values="0 0 0 0 1 0 0 0 0 1 0 0 0 0 1 0 0 0 1 0" type="matrix" in="SourceGraphic"/></filter><clipPath id="663b6c7bc6"><path d="M 0.761719 0.238281 L 189.878906 0.238281 L 189.878906 234.480469 L 0.761719 234.480469 Z M 0.761719 0.238281 "/></clipPath><clipPath id="c013d92671"><rect x="0" width="190" y="0" height="235"/></clipPath><clipPath id="f8b1f302ec"><path d="M 130 245 L 192 245 L 192 330.703125 L 130 330.703125 Z M 130 245 "/></clipPath><clipPath id="75df980eee"><path d="M 0.558594 0.519531 L 61.761719 0.519531 L 61.761719 85.480469 L 0.558594 85.480469 Z M 0.558594 0.519531 "/></clipPath><clipPath id="a72419ace9"><rect x="0" width="62" y="0" height="86"/></clipPath><clipPath id="c8ade41bd2"><path d="M 0.480469 0.121094 L 30.480469 0.121094 L 30.480469 24.359375 L 0.480469 24.359375 Z M 0.480469 0.121094 "/></clipPath><clipPath id="70167378c6"><rect x="0" width="31" y="0" height="25"/></clipPath><clipPath id="50487456ec"><path d="M 0.0390625 1 L 25.238281 1 L 25.238281 25.679688 L 0.0390625 25.679688 Z M 0.0390625 1 "/></clipPath><clipPath id="7a3d1fe9fc"><rect x="0" width="26" y="0" height="26"/></clipPath><clipPath id="416868ae30"><path d="M 0.199219 0.238281 L 79 0.238281 L 79 56.160156 L 0.199219 56.160156 Z M 0.199219 0.238281 "/></clipPath><clipPath id="7754b57b01"><rect x="0" width="80" y="0" height="57"/></clipPath><clipPath id="9058ba11b1"><path d="M 0.078125 0.480469 L 39.679688 0.480469 L 39.679688 66.71875 L 0.078125 66.71875 Z M 0.078125 0.480469 "/></clipPath><clipPath id="2cb9765922"><rect x="0" width="40" y="0" height="67"/></clipPath><clipPath id="1d7af7d1ec"><path d="M 220 327 L 232 327 L 232 330.703125 L 220 330.703125 Z M 220 327 "/></clipPath><clipPath id="12cdd7ccf9"><path d="M 221 95.203125 L 286 95.203125 L 286 330.703125 L 221 330.703125 Z M 221 95.203125 "/></clipPath><clipPath id="b169f1d2a1"><path d="M 95 238 L 193 238 L 193 330.703125 L 95 330.703125 Z M 95 238 "/></clipPath><clipPath id="ddf2405765"><path d="M 138 281 L 181 281 L 181 330.703125 L 138 330.703125 Z M 138 281 "/></clipPath><clipPath id="03a67f411a"><path d="M 76.042969 189 L 120 189 L 120 198 L 76.042969 198 Z M 76.042969 189 "/></clipPath><clipPath id="7f666df411"><path d="M 0.519531 1 L 43.238281 1 L 43.238281 33.558594 L 0.519531 33.558594 Z M 0.519531 1 "/></clipPath><clipPath id="57777f978a"><rect x="0" width="44" y="0" height="34"/></clipPath><clipPath id="5107bb6f26"><path d="M 1 0.601562 L 44.398438 0.601562 L 44.398438 30.121094 L 1 30.121094 Z M 1 0.601562 "/></clipPath><clipPath id="3b238f5446"><rect x="0" width="45" y="0" height="31"/></clipPath></defs><g id="d06442e4a1"><g clip-rule="nonzero" clip-path="url(#81946b59b4)"><g clip-rule="nonzero" clip-path="url(#74837f19e9)"><g clip-rule="nonzero" clip-path="url(#8f29239089)"><path style=" stroke:none;fill-rule:nonzero;fill:#000000;fill-opacity:1;" d="M 354.121094 282.179688 C 359.230469 274.246094 363.046875 264.960938 365.234375 254.105469 C 379.347656 184.058594 346.765625 66.769531 263.652344 56.113281 C 228.328125 51.582031 188.414062 56.8125 153.085938 60.167969 C 100.136719 65.195312 61.003906 84.578125 36.574219 134.261719 C 17.195312 173.675781 -0.191406 223.761719 10.523438 268.015625 C 16.335938 292.03125 32.378906 314.535156 55.5 323.25 C 74.546875 330.425781 95.648438 327.707031 115.964844 326.558594 C 185.300781 322.640625 308.503906 353.027344 354.121094 282.179688 "/></g></g></g><g clip-rule="nonzero" clip-path="url(#ce8d14d0ff)"><path style=" stroke:none;fill-rule:nonzero;fill:#fffafa;fill-opacity:1;" d="M 273.351562 330.15625 C 272.25 311.296875 268.15625 294.035156 261.746094 277.679688 C 261.023438 275.351562 260.164062 272.933594 259.308594 270.519531 C 257.917969 264.769531 256.226562 260.207031 254.042969 255.894531 C 253.339844 253.4375 253.105469 252.382812 252.875 251.328125 C 254.980469 250.003906 256.96875 248.914062 258.957031 247.820312 C 261.121094 246.917969 262.832031 246.042969 264.339844 244.894531 C 266.210938 243.726562 266.796875 243.257812 266.796875 243.257812 C 268.273438 242.214844 269.519531 240.847656 270.421875 239.28125 C 271.996094 238.011719 273.085938 236.5625 273.816406 234.953125 C 274.519531 233.472656 274.984375 232.574219 275.453125 231.675781 C 277.699219 227.734375 278.671875 223.964844 278.601562 220.210938 C 278.261719 217.871094 278.15625 217.167969 278.15625 217.167969 C 277.382812 212.746094 276.078125 208.417969 274.273438 204.304688 C 276.359375 204.664062 277.894531 205.195312 279.425781 205.734375 C 275.203125 196.34375 274.921875 185.617188 276.261719 175.40625 C 277.601562 165.199219 280.464844 155.257812 282.3125 145.128906 C 283.554688 138.320312 284.335938 131.425781 284.644531 124.511719 C 285.050781 115.464844 284.355469 105.582031 278.359375 98.796875 C 277.121094 97.570312 275.582031 96.835938 273.964844 96.421875 C 272.273438 96.738281 271.953125 96.789062 271.953125 96.789062 C 270.890625 97.121094 269.828125 97.453125 268.765625 97.78125 C 265.703125 99.445312 263.542969 100.628906 261.382812 101.808594 C 257.128906 104.234375 253.441406 106.8125 250.003906 109.691406 C 239.050781 116.976562 229.855469 124.488281 221.578125 132.910156 C 202.9375 127.625 182.539062 128.074219 162.839844 131.183594 C 159.410156 129.257812 156.414062 125.257812 153.011719 122.640625 C 148.34375 119.242188 144.910156 116.402344 141.644531 113.382812 C 137.410156 110.464844 134.988281 108.136719 132.488281 105.953125 C 129.984375 103.769531 127.152344 102.0625 124.160156 100.589844 C 121.179688 99.125 117.304688 99.613281 114.632812 101.589844 C 111.601562 103.828125 110.566406 107.839844 109.929688 111.554688 C 107.34375 126.566406 107.898438 141.984375 110.070312 157.0625 C 106.277344 162.890625 106.550781 171.011719 110.5 176.6875 C 110.605469 179.222656 111.085938 181.742188 111.9375 184.132812 C 110.660156 191.53125 107.273438 198.589844 106.089844 205.683594 C 104.910156 212.777344 104.953125 220.175781 107.128906 227.027344 C 107.429688 226.316406 107.730469 225.609375 108.027344 224.898438 C 108.359375 224.144531 109.140625 223.804688 109.636719 224.058594 C 110.128906 224.316406 110.359375 224.882812 110.554688 225.40625 C 111.136719 226.980469 111.722656 228.554688 112.304688 230.128906 C 112.714844 230.972656 112.867188 231.609375 112.867188 231.609375 C 113.636719 233 114.410156 234.390625 115.183594 235.78125 C 116.027344 236.839844 116.375 237.445312 116.375 237.445312 C 119.65625 242.023438 123.972656 245.851562 128.90625 248.566406 C 129.214844 248.917969 129.160156 249.066406 129.160156 249.066406 C 128.433594 249.53125 127.707031 249.992188 126.980469 250.457031 C 125.601562 251.796875 124.628906 252.703125 123.660156 253.605469 C 121.472656 255.941406 120.050781 257.546875 118.628906 259.15625 C 116.339844 262.425781 114.476562 265.015625 112.613281 267.609375 C 109.890625 272.789062 108.59375 278.359375 108.738281 283.894531 C 108.949219 283.773438 109.15625 283.652344 109.367188 283.53125 C 105.058594 288.675781 101.527344 294.992188 99.300781 301.746094 C 98.457031 304.457031 97.902344 306.515625 97.351562 308.578125 C 95.753906 316.128906 95.484375 323.28125 96.433594 330.15625 Z M 273.351562 330.15625 "/><g mask="url(#b3a9da2498)" transform="matrix(1,0,0,1,95,96)"><g clip-path="url(#c013d92671)"><g clip-rule="nonzero" clip-path="url(#663b6c7bc6)"><path style=" stroke:none;fill-rule:nonzero;fill:#ffffff;fill-opacity:1;" d="M 178.351562 234.15625 C 177.25 215.296875 173.15625 198.035156 166.746094 181.679688 C 166.023438 179.351562 165.164062 176.933594 164.308594 174.519531 C 162.917969 168.769531 161.226562 164.207031 159.042969 159.894531 C 158.339844 157.4375 158.105469 156.382812 157.875 155.328125 C 159.980469 154.003906 161.96875 152.914062 163.957031 151.820312 C 166.121094 150.917969 167.832031 150.042969 169.339844 148.894531 C 171.210938 147.726562 171.796875 147.257812 171.796875 147.257812 C 173.273438 146.214844 174.519531 144.847656 175.421875 143.28125 C 176.996094 142.011719 178.085938 140.5625 178.816406 138.953125 C 179.519531 137.472656 179.984375 136.574219 180.453125 135.675781 C 182.699219 131.734375 183.671875 127.964844 183.601562 124.210938 C 183.261719 121.871094 183.15625 121.167969 183.15625 121.167969 C 182.382812 116.746094 181.078125 112.417969 179.273438 108.304688 C 181.359375 108.664062 182.894531 109.195312 184.425781 109.734375 C 180.203125 100.34375 179.921875 89.617188 181.261719 79.40625 C 182.601562 69.199219 185.464844 59.257812 187.3125 49.128906 C 188.554688 42.320312 189.335938 35.425781 189.644531 28.511719 C 190.050781 19.464844 189.355469 9.582031 183.359375 2.796875 C 182.121094 1.570312 180.582031 0.835938 178.964844 0.421875 C 177.273438 0.738281 176.953125 0.789062 176.953125 0.789062 C 175.890625 1.121094 174.828125 1.453125 173.765625 1.78125 C 170.703125 3.445312 168.542969 4.628906 166.382812 5.808594 C 162.128906 8.234375 158.441406 10.8125 155.003906 13.691406 C 144.050781 20.976562 134.855469 28.488281 126.578125 36.910156 C 107.9375 31.625 87.664062 31.050781 67.964844 34.164062 C 64.535156 32.234375 61.410156 29.257812 58.011719 26.640625 C 53.34375 23.242188 49.910156 20.402344 46.644531 17.382812 C 42.410156 14.464844 39.988281 12.136719 37.484375 9.953125 C 34.980469 7.769531 32.203125 6.824219 29.160156 4.589844 C 26.480469 2.628906 22.304688 3.613281 19.632812 5.589844 C 16.601562 7.828125 15.566406 11.839844 14.925781 15.554688 C 12.34375 30.566406 12.894531 45.984375 15.066406 61.0625 C 11.277344 66.890625 11.546875 75.011719 15.496094 80.6875 C 15.601562 83.222656 16.492188 86.238281 17.34375 88.628906 C 15.039062 96.25 12.269531 102.589844 11.089844 109.683594 C 9.90625 116.777344 9.953125 124.175781 12.125 131.027344 C 12.425781 130.320312 12.726562 129.609375 13.027344 128.902344 C 13.359375 128.144531 14.140625 127.804688 14.632812 128.0625 C 15.128906 128.320312 15.359375 128.886719 15.550781 129.40625 C 16.136719 130.980469 16.71875 132.554688 17.304688 134.132812 C 17.710938 134.972656 17.863281 135.613281 17.863281 135.613281 C 18.636719 137.003906 19.410156 138.390625 20.179688 139.78125 C 21.027344 140.84375 21.375 141.445312 21.375 141.445312 C 24.65625 146.023438 28.96875 149.855469 33.902344 152.570312 C 34.210938 152.921875 34.160156 153.070312 34.160156 153.070312 C 33.433594 153.53125 32.707031 153.996094 31.980469 154.457031 C 30.601562 155.800781 29.628906 156.703125 28.65625 157.609375 C 26.46875 159.941406 25.050781 161.550781 23.628906 163.15625 C 21.335938 166.425781 19.476562 169.019531 17.613281 171.609375 C 14.890625 176.792969 13.589844 182.359375 13.734375 187.898438 C 13.945312 187.777344 14.15625 187.652344 14.367188 187.53125 C 10.058594 192.679688 6.523438 198.996094 4.300781 205.746094 C 3.453125 208.457031 2.902344 210.519531 2.351562 212.582031 C 0.753906 220.132812 0.480469 227.28125 1.433594 234.15625 Z M 178.351562 234.15625 "/></g></g><mask id="b3a9da2498"><g filter="url(#42a1a1a144)"><rect x="0" width="375" y="0" height="374.999991" style="fill:#000000;fill-opacity:0.05;stroke:none;"/></g></mask></g></g><g clip-rule="nonzero" clip-path="url(#f8b1f302ec)"><g mask="url(#381a273324)" transform="matrix(1,0,0,1,130,245)"><g clip-path="url(#a72419ace9)"><g clip-rule="nonzero" clip-path="url(#75df980eee)"><path style=" stroke:none;fill-rule:nonzero;fill:#000000;fill-opacity:1;" d="M 9.996094 85.15625 C 11.328125 83.019531 12.398438 80.699219 13.230469 78.335938 C 15.328125 72.402344 16.152344 66.109375 17.503906 59.964844 C 18.859375 53.820312 20.839844 47.621094 24.84375 42.769531 C 28.53125 45.902344 33.71875 47.175781 38.4375 46.109375 C 43.15625 45.046875 47.292969 41.660156 49.277344 37.246094 C 51.546875 35.867188 53.441406 33.878906 54.707031 31.546875 C 59.539062 27.921875 62.175781 21.578125 61.332031 15.597656 C 60.492188 9.617188 54.976562 3.699219 50.941406 0.714844 C 55.308594 4.167969 57.921875 10.699219 58.757812 16.203125 C 59.042969 18.089844 58.445312 20.71875 56.542969 20.675781 C 55.847656 20.660156 55.238281 20.246094 54.671875 19.847656 L 44.664062 12.835938 C 47.539062 15.699219 50.246094 18.894531 51.554688 22.738281 C 52.867188 26.578125 52.539062 31.1875 49.847656 34.226562 C 51.152344 31.667969 50.769531 28.339844 48.914062 26.148438 C 48.707031 31.941406 44.941406 37.457031 39.628906 39.761719 C 34.3125 42.066406 27.710938 41.046875 23.34375 37.242188 C 19.214844 38.777344 16.238281 43.1875 14.59375 47.792969 C 12.949219 52.394531 12.40625 57.300781 11.320312 62.066406 C 9.429688 70.359375 5.835938 78.253906 0.863281 85.15625 Z M 9.996094 85.15625 "/></g></g><mask id="381a273324"><g filter="url(#42a1a1a144)"><rect x="0" width="375" y="0" height="374.999991" style="fill:#000000;fill-opacity:0.15;stroke:none;"/></g></mask></g></g><g mask="url(#f2b2d96c8b)" transform="matrix(1,0,0,1,180,195)"><g clip-path="url(#70167378c6)"><g clip-rule="nonzero" clip-path="url(#c8ade41bd2)"><path style=" stroke:none;fill-rule:nonzero;fill:#000000;fill-opacity:1;" d="M 1.488281 2.222656 C 0.84375 3.011719 0.742188 4.105469 0.761719 5.125 C 0.839844 9.738281 2.847656 14.246094 6.046875 17.570312 C 9.25 20.894531 13.585938 23.050781 18.132812 23.847656 C 22.253906 24.570312 26.714844 24.148438 30.238281 21.894531 C 20.671875 23.019531 16.90625 21.667969 10.3125 16.605469 C 5.324219 12.777344 4.078125 6.375 2.371094 0.320312 C 1.550781 1.265625 0.96875 2.417969 1.488281 2.222656 Z M 1.488281 2.222656 "/></g></g><mask id="f2b2d96c8b"><g filter="url(#42a1a1a144)"><rect x="0" width="375" y="0" height="374.999991" style="fill:#000000;fill-opacity:0.14;stroke:none;"/></g></mask></g><g mask="url(#6508edaaae)" transform="matrix(1,0,0,1,155,192)"><g clip-path="url(#7a3d1fe9fc)"><g clip-rule="nonzero" clip-path="url(#50487456ec)"><path style=" stroke:none;fill-rule:nonzero;fill:#000000;fill-opacity:1;" d="M 24.429688 3.050781 C 24.953125 3.855469 25.035156 4.96875 25.023438 6.003906 C 24.960938 10.699219 23.320312 15.285156 20.707031 18.667969 C 18.09375 22.050781 14.554688 24.242188 10.84375 25.054688 C 7.480469 25.789062 3.09375 26.175781 0.214844 23.882812 C 8.027344 25.03125 11.84375 22.835938 17.222656 17.6875 C 21.296875 13.789062 22.3125 7.273438 23.707031 1.113281 C 24.378906 2.074219 24.851562 3.246094 24.429688 3.050781 Z M 24.429688 3.050781 "/></g></g><mask id="6508edaaae"><g filter="url(#42a1a1a144)"><rect x="0" width="375" y="0" height="374.999991" style="fill:#000000;fill-opacity:0.14;stroke:none;"/></g></mask></g><g mask="url(#e5aec9ea6b)" transform="matrix(1,0,0,1,199,204)"><g clip-path="url(#7754b57b01)"><g clip-rule="nonzero" clip-path="url(#416868ae30)"><path style=" stroke:none;fill-rule:nonzero;fill:#000000;fill-opacity:1;" d="M 76.34375 0.398438 C 77.414062 11.308594 72.863281 22.308594 65.535156 30.457031 C 58.203125 38.609375 48.320312 44.125 37.988281 47.78125 C 27.652344 51.4375 16.800781 53.351562 4.949219 55.089844 C 3.386719 55.144531 1.820312 55.195312 0.257812 55.25 C 1.132812 55.464844 2 55.675781 2.917969 56.085938 C 21.480469 56.015625 40.515625 54.078125 57.148438 45.835938 C 62.140625 43.363281 66.917969 40.292969 70.671875 36.175781 C 79.089844 26.949219 81.296875 12.5625 76.347656 0.398438 Z M 76.34375 0.398438 "/></g></g><mask id="e5aec9ea6b"><g filter="url(#42a1a1a144)"><rect x="0" width="375" y="0" height="374.999991" style="fill:#000000;fill-opacity:0.14;stroke:none;"/></g></mask></g><g mask="url(#5ccaa260b8)" transform="matrix(1,0,0,1,106,186)"><g clip-path="url(#2cb9765922)"><g clip-rule="nonzero" clip-path="url(#9058ba11b1)"><path style=" stroke:none;fill-rule:nonzero;fill:#000000;fill-opacity:1;" d="M 39.566406 63.109375 C 31.578125 61.6875 24.054688 57.769531 18.308594 52.039062 C 12.5625 46.308594 8.621094 38.792969 7.175781 30.808594 C 6.460938 31.082031 5.953125 31.828125 5.960938 32.59375 C 3.496094 22.164062 3.351562 11.1875 5.542969 0.695312 C 0.167969 12.625 -1.097656 26.359375 2.011719 39.066406 C 2.214844 38.304688 2.417969 37.542969 2.617188 36.78125 C 4.710938 41.730469 6.820312 46.707031 9.71875 51.234375 C 12.617188 55.757812 16.378906 59.851562 21.117188 62.386719 C 25.726562 64.851562 31 65.722656 36.171875 66.484375 C 35.878906 66.484375 35.585938 66.484375 35.292969 66.480469 C 37.175781 65.929688 38.820312 64.601562 39.566406 63.109375 Z M 39.566406 63.109375 "/></g></g><mask id="5ccaa260b8"><g filter="url(#42a1a1a144)"><rect x="0" width="375" y="0" height="374.999991" style="fill:#000000;fill-opacity:0.16;stroke:none;"/></g></mask></g><path style=" stroke:none;fill-rule:nonzero;fill:#ffffff;fill-opacity:1;" d="M 227.316406 133.601562 C 242.203125 142.320312 255.515625 153.71875 266.421875 167.082031 C 278.664062 155.125 283.972656 131.925781 279.816406 114.585938 C 278.957031 110.304688 279.296875 111.070312 278.4375 106.785156 C 278.226562 105.726562 276.722656 104.097656 275.953125 103.34375 C 274.902344 102.3125 273.21875 102.300781 271.789062 102.640625 C 270.355469 102.976562 268.96875 103.601562 267.5 103.644531 C 264.285156 104.550781 261.152344 105.753906 257.570312 107.675781 C 246.160156 114.488281 235.84375 123.121094 227.316406 133.601562 Z M 227.316406 133.601562 "/><path style=" stroke:none;fill-rule:nonzero;fill:#ffffff;fill-opacity:1;" d="M 115.011719 152.394531 C 121.488281 149.59375 126.945312 148.464844 133.929688 147.453125 C 133.640625 147.5 133.347656 147.546875 133.058594 147.59375 C 139.007812 140.535156 147.421875 135.59375 156.488281 133.84375 C 147.78125 125.207031 139.0625 116.5625 129.722656 108.613281 C 127.675781 106.871094 125.390625 105.078125 122.707031 104.96875 C 119.984375 104.859375 117.449219 106.574219 115.855469 108.78125 C 114.261719 110.988281 114.066406 114.269531 112.671875 117.691406 C 112.972656 124.78125 112.273438 130.492188 112.726562 138.402344 C 112.335938 142.699219 114.734375 147.03125 115.007812 152.390625 Z M 115.011719 152.394531 "/><path style=" stroke:none;fill-rule:nonzero;fill:#ffffff;fill-opacity:1;" d="M 143.800781 147.183594 C 152.578125 147.910156 161.199219 150.519531 168.910156 154.777344 C 170.664062 155.746094 172.390625 156.816406 173.792969 158.253906 C 175.191406 159.691406 176.246094 161.539062 176.414062 163.535156 C 176.605469 165.292969 176.566406 166.285156 176.527344 167.273438 C 175.753906 178.433594 170.027344 189.222656 160.917969 195.550781 C 151.8125 201.878906 139.472656 203.449219 129.226562 199.195312 C 118.984375 194.941406 111.300781 184.84375 110.460938 173.265625 C 109.957031 175.332031 110.257812 177.582031 111.289062 179.445312 C 109.953125 176.394531 108.605469 173.320312 107.859375 170.070312 C 107.109375 166.824219 106.988281 163.355469 108.082031 160.207031 C 109.175781 157.0625 111.609375 154.28125 115.410156 153.023438 C 113.753906 153.804688 112.316406 155.046875 111.300781 156.570312 C 119.84375 148.667969 132.054688 146.207031 143.800781 147.183594 Z M 143.800781 147.183594 "/><path style=" stroke:none;fill-rule:nonzero;fill:#ffffff;fill-opacity:1;" d="M 174.269531 157.40625 C 172.601562 159.964844 171.757812 163.050781 171.886719 166.105469 C 171.894531 166.359375 171.921875 166.640625 172.097656 166.832031 C 172.835938 167.648438 174.390625 165.640625 175.082031 166.496094 C 174.515625 167.285156 173.953125 168.070312 173.386719 168.855469 C 179.511719 164.878906 182.699219 165.28125 187.566406 165.988281 C 188.765625 166.164062 190.007812 166.46875 190.902344 167.289062 C 192.058594 165.15625 193.21875 163.019531 194.378906 160.886719 C 194.621094 160.4375 194.871094 159.949219 194.808594 159.445312 C 194.703125 158.582031 193.722656 158.082031 192.851562 158.085938 C 191.980469 158.085938 191.148438 158.421875 190.285156 158.523438 C 187.722656 158.816406 185.410156 157.023438 182.875 156.519531 C 180.226562 155.996094 177.332031 157.023438 175.605469 159.101562 C 174.648438 158.457031 173.6875 157.8125 174.269531 157.410156 Z M 174.269531 157.40625 "/><path style=" stroke:none;fill-rule:nonzero;fill:#ffffff;fill-opacity:1;" d="M 190.246094 163.796875 C 189.132812 173.882812 192.4375 184.378906 199.128906 192.007812 C 205.824219 199.636719 215.804688 204.277344 225.949219 204.480469 C 233.089844 204.625 240.511719 202.472656 245.570312 197.429688 C 249.925781 193.085938 252.132812 187.089844 254.214844 181.300781 C 255.984375 176.375 257.769531 170.996094 256.132812 166.027344 C 254.941406 162.410156 252.035156 159.542969 248.707031 157.695312 C 245.378906 155.847656 241.625 154.914062 237.890625 154.160156 C 230.117188 152.59375 222.195312 151.75 214.261719 151.640625 C 209.417969 151.578125 204.46875 151.800781 199.925781 153.488281 C 195.378906 155.171875 190.832031 158.460938 190.242188 163.796875 Z M 190.246094 163.796875 "/><path style=" stroke:none;fill-rule:nonzero;fill:#ffffff;fill-opacity:1;" d="M 249.671875 166.820312 C 250.648438 167.980469 251.722656 169.058594 252.796875 170.128906 C 260.671875 177.996094 268.570312 185.839844 276.484375 193.664062 C 276.914062 192.101562 276.464844 190.402344 275.644531 189.003906 C 274.824219 187.605469 273.660156 186.445312 272.539062 185.277344 C 268.109375 180.652344 264.117188 175.605469 260.640625 170.222656 C 259.144531 167.914062 257.722656 165.515625 255.753906 163.59375 C 254.980469 162.839844 254.101562 162.15625 253.066406 161.839844 C 252.035156 161.527344 250.824219 161.644531 250.011719 162.355469 C 249.199219 163.070312 248.074219 164.914062 249.671875 166.820312 Z M 249.671875 166.820312 "/><path style=" stroke:none;fill-rule:nonzero;fill:#ffffff;fill-opacity:1;" d="M 175.082031 183.171875 C 174.316406 183.1875 173.824219 183.984375 173.574219 184.710938 C 173.210938 185.769531 173.050781 186.898438 173.097656 188.015625 C 173.136719 188.863281 173.324219 189.757812 173.921875 190.359375 C 174.515625 190.960938 175.628906 191.101562 176.183594 190.464844 C 176.652344 191.75 177.140625 193.066406 178.046875 194.097656 C 178.949219 195.125 180.375 195.816406 181.699219 195.46875 C 182.683594 195.207031 183.460938 194.414062 183.941406 193.515625 C 184.417969 192.613281 184.640625 191.601562 184.855469 190.601562 C 185.0625 191.070312 185.640625 191.289062 186.148438 191.222656 C 186.65625 191.15625 187.109375 190.871094 187.519531 190.5625 C 188.535156 189.808594 189.464844 188.839844 189.808594 187.621094 C 190.230469 186.121094 189.65625 184.449219 188.574219 183.328125 C 187.492188 182.210938 185.964844 181.59375 184.425781 181.363281 C 182.882812 181.132812 181.3125 181.257812 179.761719 181.441406 C 178.332031 181.609375 176.773438 181.898438 175.085938 183.167969 Z M 175.082031 183.171875 "/><path style=" stroke:none;fill-rule:nonzero;fill:#000000;fill-opacity:1;" d="M 153.644531 134.078125 C 155.035156 135.78125 155.183594 138.160156 155.152344 140.363281 C 155.117188 142.5625 154.984375 144.878906 155.972656 146.84375 C 157.109375 149.113281 159.640625 150.5 162.175781 150.617188 C 164.707031 150.730469 167.203125 149.699219 169.191406 148.125 C 171.179688 146.550781 172.707031 144.460938 173.992188 142.277344 C 175.988281 138.875 177.460938 135.164062 178.339844 131.316406 C 178.511719 130.566406 178.628906 129.679688 178.109375 129.105469 C 177.519531 128.457031 176.484375 128.597656 175.628906 128.789062 C 168.460938 130.398438 161.292969 132.011719 153.644531 134.078125 Z M 153.644531 134.078125 "/><path style=" stroke:none;fill-rule:nonzero;fill:#000000;fill-opacity:1;" d="M 207.113281 129.472656 C 206.882812 132.089844 206.671875 134.832031 207.71875 137.238281 C 208.113281 138.136719 208.722656 139.003906 209.628906 139.378906 C 210.535156 139.753906 211.582031 139.570312 212.5 139.214844 C 215.15625 138.191406 217.109375 135.890625 219.605469 134.519531 C 220.085938 134.257812 220.59375 134.019531 220.992188 133.636719 C 221.386719 133.253906 221.648438 132.679688 221.488281 132.15625 C 221.269531 131.441406 220.429688 131.15625 219.703125 130.988281 C 215.835938 130.089844 211.890625 129.542969 207.113281 129.476562 Z M 207.113281 129.472656 "/><path style=" stroke:none;fill-rule:nonzero;fill:#000000;fill-opacity:1;" d="M 252.164062 251.453125 C 245.949219 253.304688 239.734375 255.15625 233.515625 257.007812 C 232.464844 257.320312 231.183594 257.949219 231.277344 259.042969 C 231.335938 259.722656 231.953125 260.222656 232.582031 260.480469 C 233.996094 261.054688 235.589844 260.796875 237.109375 260.695312 C 238.632812 260.59375 240.339844 260.730469 241.382812 261.847656 C 242.371094 262.90625 242.445312 264.488281 242.746094 265.902344 C 243.046875 267.320312 243.929688 268.898438 245.375 268.949219 C 247.308594 269.015625 248.699219 266.285156 250.566406 266.792969 C 251.863281 267.144531 252.507812 268.949219 253.847656 268.957031 C 254.628906 268.960938 255.28125 268.285156 255.511719 267.539062 C 255.738281 266.792969 255.636719 265.988281 255.535156 265.214844 C 255.109375 261.957031 254.683594 258.699219 254.257812 255.441406 C 254.054688 253.886719 253.644531 252.058594 252.164062 251.453125 Z M 252.164062 251.453125 "/><path style=" stroke:none;fill-rule:nonzero;fill:#000000;fill-opacity:1;" d="M 244.191406 320.214844 C 243.183594 313.46875 242.300781 306.046875 245.957031 300.285156 C 247.082031 298.515625 248.777344 296.910156 250.863281 296.707031 C 252.941406 296.503906 254.863281 297.714844 256.597656 298.871094 C 260.027344 301.160156 263.625 303.648438 265.292969 307.417969 C 266.886719 311.015625 266.421875 315.238281 265.03125 318.917969 C 263.773438 322.25 261.714844 325.371094 258.75 327.347656 C 255.785156 329.324219 251.84375 330 248.578125 328.574219 C 245.316406 327.148438 244.695312 323.570312 244.191406 320.214844 Z M 244.191406 320.214844 "/><path style=" stroke:none;fill-rule:nonzero;fill:#000000;fill-opacity:1;" d="M 222.886719 288.417969 C 222.933594 285.695312 223.320312 282.84375 224.9375 280.65625 C 225.410156 280.027344 226 279.445312 226.75 279.199219 C 229.101562 278.425781 231.46875 281.210938 234.1875 280.835938 C 235.105469 280.855469 235.84375 281.691406 236.046875 282.585938 C 236.25 283.480469 236.039062 284.414062 235.78125 285.292969 C 234.894531 288.304688 233.472656 291.152344 231.597656 293.667969 C 230.617188 294.980469 229.359375 296.289062 227.730469 296.480469 C 225.894531 296.699219 224.15625 295.359375 223.316406 293.710938 C 222.476562 292.0625 222.851562 290.238281 222.886719 288.417969 Z M 222.886719 288.417969 "/><g clip-rule="nonzero" clip-path="url(#1d7af7d1ec)"><path style=" stroke:none;fill-rule:nonzero;fill:#000000;fill-opacity:1;" d="M 231.902344 330.15625 C 230.78125 329.328125 229.667969 328.492188 228.351562 328.066406 C 225.699219 327.207031 222.804688 328.257812 220.703125 330.15625 Z M 231.902344 330.15625 "/></g><path style=" stroke:none;fill-rule:nonzero;fill:#000000;fill-opacity:1;" d="M 95.859375 317.4375 C 97.003906 318.507812 98.203125 319.554688 99.628906 320.207031 C 101.054688 320.855469 102.75 321.070312 104.1875 320.441406 C 106.894531 319.253906 107.621094 315.691406 107.199219 312.765625 C 106.777344 309.839844 105.578125 306.96875 105.890625 304.03125 C 106.054688 302.488281 106.625 301.027344 107.023438 299.53125 C 107.421875 298.035156 107.640625 296.414062 107.105469 294.957031 C 106.574219 293.503906 105.09375 292.304688 103.5625 292.546875 C 103.5625 292.546875 103.40625 293.277344 102.859375 294.785156 C 98.988281 301.96875 96.652344 309.972656 95.855469 317.4375 Z M 95.859375 317.4375 "/><path style=" stroke:none;fill-rule:nonzero;fill:#000000;fill-opacity:1;" d="M 113.445312 266.914062 C 112.96875 267.539062 112.480469 268.179688 112.242188 268.929688 C 112 269.683594 112.054688 270.574219 112.582031 271.164062 C 113.578125 272.277344 115.5 271.628906 116.5 270.515625 C 117.503906 269.402344 118.101562 267.917969 119.3125 267.035156 C 120.527344 266.15625 122.117188 266.050781 123.554688 265.609375 C 125.707031 264.949219 127.527344 263.523438 129.289062 262.125 C 133.417969 258.851562 137.542969 255.578125 141.671875 252.304688 C 139.246094 252.042969 136.914062 251.257812 134.523438 250.78125 C 132.132812 250.308594 129.566406 250.171875 127.339844 251.164062 C 125.683594 251.898438 124.351562 253.199219 123.058594 254.472656 C 119.191406 258.285156 116.5 262.917969 113.445312 266.914062 Z M 113.445312 266.914062 "/><path style=" stroke:none;fill-rule:nonzero;fill:#000000;fill-opacity:1;" d="M 128.925781 249.832031 C 128.167969 250.234375 127.847656 251.257812 128.167969 252.058594 C 128.484375 252.855469 129.347656 253.375 130.207031 253.375 C 131.105469 253.375 131.992188 252.824219 132.335938 251.996094 C 132.675781 251.167969 132.410156 250.113281 131.679688 249.59375 C 130.949219 249.078125 129.894531 249.316406 128.929688 249.832031 Z M 128.925781 249.832031 "/><path style=" stroke:none;fill-rule:nonzero;fill:#000000;fill-opacity:1;" d="M 179.117188 194.589844 C 179.1875 197.324219 179.253906 200.070312 178.882812 202.777344 C 178.511719 205.484375 177.675781 208.175781 176.082031 210.394531 C 178.074219 208.175781 179.667969 205.601562 180.761719 202.832031 C 180.828125 203.0625 180.890625 203.292969 180.957031 203.527344 C 180.941406 201.367188 180.929688 199.207031 180.917969 197.050781 C 180.914062 196.566406 180.894531 196.039062 180.570312 195.679688 C 180.140625 195.203125 179.246094 195.101562 179.117188 194.59375 Z M 179.117188 194.589844 "/><path style=" stroke:none;fill-rule:nonzero;fill:#000000;fill-opacity:1;" d="M 180.671875 202.6875 C 181.082031 204.136719 181.65625 205.542969 182.375 206.867188 C 182.289062 206.519531 182.207031 206.171875 182.121094 205.828125 C 182.472656 206.738281 182.914062 207.613281 183.433594 208.4375 C 183.179688 207.988281 182.988281 207.503906 182.863281 207.003906 C 183.042969 207.371094 183.222656 207.738281 183.402344 208.105469 C 183.292969 207.789062 183.179688 207.472656 183.070312 207.160156 C 183.292969 207.5625 183.519531 207.972656 183.742188 208.375 C 182.941406 206.289062 182.585938 204.046875 182.488281 201.8125 C 182.390625 199.578125 182.550781 197.339844 182.742188 195.109375 C 182.140625 195.078125 181.441406 195.082031 181.066406 195.554688 C 180.875 195.796875 180.816406 196.117188 180.765625 196.421875 C 180.445312 198.457031 180.078125 200.601562 180.671875 202.6875 Z M 180.671875 202.6875 "/><path style=" stroke:none;fill-rule:nonzero;fill:#000000;fill-opacity:1;" d="M 109.121094 285.308594 C 108.65625 285.308594 108.269531 284.949219 108.242188 284.480469 C 107.832031 277.226562 110.203125 269.320312 114.921875 262.214844 C 117.742188 257.96875 120.539062 255.601562 123.503906 253.089844 C 124.832031 251.964844 126.195312 250.808594 127.632812 249.429688 C 123.429688 247.535156 119.566406 244.136719 116.128906 239.300781 C 113.402344 235.46875 111.003906 230.847656 108.992188 225.539062 C 108.746094 226.128906 108.558594 226.738281 108.421875 227.367188 C 108.339844 227.769531 107.988281 228.058594 107.578125 228.0625 C 107.171875 228.070312 106.808594 227.792969 106.710938 227.394531 C 103.292969 213.519531 105.085938 198.351562 111.617188 185.640625 C 110.335938 182.046875 109.460938 178.261719 109.023438 174.390625 C 107.929688 171.679688 106.710938 168.609375 106.582031 165.414062 C 106.449219 162.054688 107.695312 158.765625 110.023438 156.296875 C 106.558594 144.949219 107.328125 132.535156 108.007812 121.566406 C 108.328125 116.421875 108.660156 111.101562 110.652344 106.152344 C 112.417969 101.769531 115.472656 99.027344 118.820312 98.8125 C 121.378906 98.652344 123.703125 99.9375 125.867188 101.269531 C 126.707031 101.789062 127.496094 102.269531 128.25 102.730469 C 132.851562 105.535156 136.179688 107.5625 143.019531 112.796875 C 152.449219 120.011719 159.3125 126.082031 163.414062 130.835938 C 163.730469 131.203125 163.691406 131.757812 163.320312 132.074219 C 162.953125 132.394531 162.398438 132.351562 162.082031 131.984375 C 158.058594 127.320312 151.285156 121.335938 141.953125 114.195312 C 135.183594 109.015625 131.894531 107.007812 127.335938 104.230469 C 126.578125 103.769531 125.789062 103.289062 124.945312 102.765625 C 122.941406 101.535156 120.972656 100.4375 118.929688 100.566406 C 114.996094 100.816406 112.847656 105.40625 112.285156 106.808594 C 110.394531 111.496094 110.074219 116.671875 109.761719 121.675781 C 109.082031 132.65625 108.308594 145.097656 111.859375 156.269531 C 111.957031 156.589844 111.871094 156.933594 111.632812 157.167969 C 109.417969 159.320312 108.214844 162.300781 108.339844 165.34375 C 108.457031 168.28125 109.597656 171.109375 110.699219 173.847656 C 110.730469 173.921875 110.75 174 110.757812 174.078125 C 111.15625 177.683594 111.945312 181.207031 113.105469 184.566406 C 113.164062 184.59375 113.222656 184.628906 113.273438 184.667969 C 113.621094 184.929688 113.726562 185.402344 113.523438 185.785156 C 107.378906 197.355469 105.332031 211.117188 107.765625 223.996094 C 107.957031 223.621094 108.167969 223.257812 108.398438 222.902344 C 108.582031 222.621094 108.90625 222.46875 109.238281 222.507812 C 109.574219 222.546875 109.855469 222.773438 109.964844 223.089844 C 116.289062 241.035156 124.917969 246.585938 129.503906 248.296875 C 129.78125 248.402344 129.988281 248.636719 130.050781 248.929688 C 130.117188 249.222656 130.027344 249.523438 129.820312 249.738281 C 127.980469 251.597656 126.28125 253.039062 124.636719 254.429688 C 121.648438 256.960938 119.066406 259.148438 116.386719 263.183594 C 111.875 269.972656 109.605469 277.5 109.996094 284.378906 C 110.023438 284.863281 109.652344 285.277344 109.167969 285.304688 C 109.148438 285.304688 109.132812 285.304688 109.117188 285.304688 Z M 109.121094 285.308594 "/><g clip-rule="nonzero" clip-path="url(#12cdd7ccf9)"><path style=" stroke:none;fill-rule:nonzero;fill:#000000;fill-opacity:1;" d="M 223.140625 132.726562 C 234.257812 121.6875 247.75 111.3125 264.386719 100.996094 C 267.980469 98.769531 272.570312 96.457031 276.238281 98.355469 C 278.742188 99.652344 280.054688 102.664062 280.824219 104.820312 C 284.121094 114.046875 284.636719 124.730469 282.441406 138.453125 C 281.609375 143.65625 280.46875 148.902344 279.363281 153.980469 C 278.066406 159.957031 276.722656 166.132812 275.867188 172.308594 C 274.121094 184.90625 274.820312 195.382812 278.019531 204.234375 C 277.054688 203.671875 276.078125 203.15625 275.109375 202.753906 C 274.789062 202.621094 274.425781 202.6875 274.175781 202.917969 C 273.921875 203.148438 273.828125 203.507812 273.933594 203.832031 C 275.789062 209.664062 277.894531 216.273438 277.234375 222.722656 C 276.761719 227.34375 274.847656 232.039062 271.703125 236.296875 C 267.558594 241.90625 260.25 247.101562 252.148438 250.195312 C 251.695312 250.367188 251.46875 250.867188 251.636719 251.320312 C 261.863281 279.121094 269.480469 301.492188 272.570312 330.15625 L 274.339844 330.15625 C 271.273438 301.488281 263.730469 279.132812 253.582031 251.519531 C 261.664062 248.28125 268.921875 243.023438 273.117188 237.339844 C 276.453125 232.828125 278.480469 227.835938 278.984375 222.898438 C 279.605469 216.8125 277.945312 210.742188 276.222656 205.242188 C 277.257812 205.800781 278.304688 206.449219 279.332031 207.085938 C 279.65625 207.289062 280.078125 207.253906 280.367188 207.003906 C 280.65625 206.753906 280.753906 206.34375 280.601562 205.992188 C 276.722656 196.945312 275.742188 186.003906 277.609375 172.550781 C 278.457031 166.441406 279.789062 160.296875 281.082031 154.355469 C 282.191406 149.257812 283.335938 143.980469 284.175781 138.734375 C 286.417969 124.710938 285.878906 113.746094 282.476562 104.230469 C 281.605469 101.796875 280.097656 98.378906 277.046875 96.796875 C 272.59375 94.492188 267.449219 97.03125 263.460938 99.503906 C 246.710938 109.890625 233.117188 120.347656 221.902344 131.480469 C 221.558594 131.824219 221.554688 132.378906 221.898438 132.722656 C 222.238281 133.066406 222.796875 133.070312 223.140625 132.726562 Z M 223.140625 132.726562 "/></g><g clip-rule="nonzero" clip-path="url(#b169f1d2a1)"><path style=" stroke:none;fill-rule:nonzero;fill:#000000;fill-opacity:1;" d="M 97.410156 330.15625 C 95.039062 316.101562 99.410156 300.074219 109.671875 285.636719 C 118.976562 272.554688 131.703125 262.066406 144.011719 251.921875 C 144.777344 251.292969 145.542969 250.660156 146.308594 250.027344 C 150.777344 246.34375 155.394531 242.527344 160.9375 241.144531 C 166.007812 239.875 171.761719 240.789062 176.722656 243.644531 C 181.238281 246.246094 185.09375 250.378906 187.878906 255.597656 C 190.035156 259.636719 190.933594 263.355469 190.550781 266.648438 C 190.144531 270.109375 188.097656 273.15625 185.402344 274.480469 C 185.417969 269.789062 183.742188 265.144531 180.710938 261.554688 C 177.382812 257.617188 172.53125 255.078125 167.398438 254.59375 C 166.914062 254.550781 166.488281 254.902344 166.441406 255.386719 C 166.394531 255.871094 166.75 256.296875 167.234375 256.34375 C 171.914062 256.789062 176.335938 259.101562 179.367188 262.6875 C 182.398438 266.277344 183.941406 271.023438 183.597656 275.710938 C 183.578125 275.996094 183.695312 276.277344 183.921875 276.457031 C 184.144531 276.640625 184.4375 276.699219 184.714844 276.621094 C 188.699219 275.488281 191.746094 271.5625 192.296875 266.851562 C 192.722656 263.199219 191.757812 259.136719 189.429688 254.773438 C 186.492188 249.261719 182.398438 244.890625 177.601562 242.125 C 172.25 239.042969 166.019531 238.0625 160.511719 239.4375 C 154.582031 240.921875 149.808594 244.863281 145.191406 248.675781 C 144.425781 249.304688 143.660156 249.9375 142.894531 250.570312 C 130.496094 260.785156 117.675781 271.347656 108.242188 284.621094 C 97.777344 299.335938 93.289062 315.714844 95.628906 330.15625 Z M 97.410156 330.15625 "/></g><path style=" stroke:none;fill-rule:nonzero;fill:#000000;fill-opacity:1;" d="M 179.277344 283.316406 C 179.054688 283.316406 178.835938 283.230469 178.667969 283.070312 C 178.402344 282.820312 178.324219 282.429688 178.464844 282.097656 C 179.847656 278.808594 179.894531 275.019531 178.589844 271.699219 C 178.414062 271.246094 178.636719 270.734375 179.085938 270.558594 C 179.539062 270.378906 180.050781 270.601562 180.226562 271.054688 C 181.382812 273.996094 181.597656 277.265625 180.878906 280.332031 C 182.308594 279.0625 183.316406 277.324219 183.652344 275.441406 C 183.738281 274.960938 184.195312 274.644531 184.675781 274.730469 C 185.152344 274.816406 185.46875 275.273438 185.386719 275.75 C 184.808594 278.96875 182.609375 281.835938 179.652344 283.230469 C 179.53125 283.289062 179.402344 283.316406 179.277344 283.316406 Z M 179.277344 283.316406 "/><g clip-rule="nonzero" clip-path="url(#ddf2405765)"><path style=" stroke:none;fill-rule:nonzero;fill:#000000;fill-opacity:1;" d="M 140.757812 330.15625 C 144.273438 325.121094 145.695312 318.4375 146.636719 311.75 L 146.664062 311.550781 C 147.816406 303.359375 149.007812 294.894531 154.519531 289.355469 C 157.800781 291.480469 163.0625 293.089844 168.066406 292.128906 C 173.308594 291.125 177.855469 287.445312 179.933594 282.527344 C 180.121094 282.082031 179.914062 281.5625 179.464844 281.375 C 179.019531 281.1875 178.503906 281.394531 178.316406 281.84375 C 176.492188 286.160156 172.335938 289.519531 167.734375 290.402344 C 162.921875 291.328125 157.84375 289.617188 154.941406 287.511719 C 154.601562 287.265625 154.132812 287.292969 153.828125 287.578125 C 147.421875 293.527344 146.097656 302.972656 144.921875 311.304688 L 144.894531 311.503906 C 143.921875 318.421875 142.429688 325.324219 138.558594 330.15625 Z M 140.757812 330.15625 "/></g><path style=" stroke:none;fill-rule:nonzero;fill:#000000;fill-opacity:1;" d="M 181.328125 196.179688 C 180.328125 196.179688 179.308594 195.851562 178.445312 195.226562 C 177.289062 194.386719 176.453125 193.070312 176.09375 191.511719 C 175.804688 190.273438 175.808594 188.859375 176.109375 187.316406 C 176.203125 186.835938 176.664062 186.527344 177.140625 186.621094 C 177.617188 186.710938 177.925781 187.171875 177.835938 187.648438 C 177.582031 188.953125 177.570312 190.117188 177.804688 191.117188 C 178.070312 192.257812 178.664062 193.214844 179.476562 193.800781 C 180.324219 194.417969 181.425781 194.585938 182.289062 194.242188 C 183.121094 193.90625 183.808594 193.085938 184.179688 191.996094 C 184.539062 190.941406 184.589844 189.753906 184.613281 188.527344 C 184.621094 188.042969 185.015625 187.648438 185.507812 187.664062 C 185.992188 187.671875 186.378906 188.074219 186.371094 188.558594 C 186.34375 189.929688 186.285156 191.269531 185.84375 192.5625 C 185.308594 194.140625 184.253906 195.34375 182.949219 195.871094 C 182.433594 196.078125 181.886719 196.179688 181.328125 196.179688 Z M 181.328125 196.179688 "/><path style=" stroke:none;fill-rule:nonzero;fill:#000000;fill-opacity:1;" d="M 176 191.886719 C 174.742188 191.886719 173.441406 191.214844 172.671875 190.078125 C 171.867188 188.882812 171.617188 187.289062 171.96875 185.597656 C 172.179688 184.585938 172.683594 183.171875 173.886719 182.167969 C 175.046875 181.207031 176.503906 180.90625 177.777344 180.734375 C 179.664062 180.484375 181.578125 180.457031 183.472656 180.652344 C 184.734375 180.785156 186.59375 181.070312 188.148438 182.074219 C 189.445312 182.910156 190.382812 184.132812 190.792969 185.515625 C 191.234375 187.03125 190.996094 188.671875 190.152344 189.910156 C 189.226562 191.261719 187.625 192.027344 186.074219 191.863281 C 185.835938 191.839844 185.617188 191.71875 185.46875 191.527344 C 185.324219 191.339844 185.261719 191.097656 185.296875 190.859375 C 185.296875 190.855469 185.300781 190.835938 185.300781 190.832031 C 185.382812 190.351562 185.835938 190.027344 186.3125 190.109375 C 186.34375 190.113281 186.375 190.121094 186.402344 190.128906 C 187.265625 190.160156 188.171875 189.6875 188.699219 188.914062 C 189.242188 188.121094 189.398438 187.007812 189.105469 186.011719 C 188.820312 185.046875 188.125 184.148438 187.195312 183.550781 C 186.238281 182.9375 185.035156 182.582031 183.292969 182.402344 C 181.535156 182.21875 179.757812 182.246094 178.007812 182.476562 C 176.984375 182.613281 175.824219 182.84375 175.011719 183.519531 C 174.375 184.046875 173.90625 184.910156 173.6875 185.953125 C 173.4375 187.160156 173.597656 188.304688 174.128906 189.089844 C 174.6875 189.917969 175.742188 190.332031 176.53125 190.035156 C 176.984375 189.867188 177.492188 190.09375 177.664062 190.550781 C 177.832031 191.003906 177.601562 191.511719 177.148438 191.683594 C 176.78125 191.820312 176.390625 191.886719 176 191.886719 Z M 176 191.886719 "/><path style=" stroke:none;fill-rule:nonzero;fill:#000000;fill-opacity:1;" d="M 202.039062 220.09375 C 198.824219 220.09375 195.601562 219.445312 192.675781 218.148438 C 186.894531 215.589844 182.214844 210.488281 180.164062 204.507812 C 180.132812 204.425781 180.121094 204.339844 180.117188 204.253906 C 179.902344 198.125 180.097656 192.09375 180.285156 186.261719 C 180.300781 185.777344 180.707031 185.394531 181.195312 185.414062 C 181.679688 185.425781 182.058594 185.835938 182.046875 186.320312 C 181.859375 192.082031 181.667969 198.035156 181.871094 204.0625 C 183.789062 209.535156 188.085938 214.195312 193.390625 216.542969 C 198.734375 218.90625 205.128906 218.9375 210.496094 216.625 C 210.941406 216.433594 211.457031 216.640625 211.652344 217.085938 C 211.84375 217.53125 211.636719 218.046875 211.191406 218.238281 C 208.324219 219.476562 205.183594 220.09375 202.042969 220.09375 Z M 202.039062 220.09375 "/><path style=" stroke:none;fill-rule:nonzero;fill:#000000;fill-opacity:1;" d="M 161.832031 218.859375 C 158.277344 218.859375 154.722656 217.90625 151.695312 216.042969 C 151.285156 215.789062 151.15625 215.246094 151.410156 214.832031 C 151.664062 214.417969 152.207031 214.289062 152.621094 214.546875 C 157.265625 217.40625 163.289062 217.90625 168.347656 215.851562 C 173.402344 213.796875 177.367188 209.234375 178.699219 203.941406 C 178.816406 203.46875 179.292969 203.183594 179.765625 203.304688 C 180.234375 203.421875 180.519531 203.898438 180.402344 204.371094 C 178.9375 210.195312 174.570312 215.21875 169.007812 217.480469 C 166.734375 218.40625 164.285156 218.859375 161.832031 218.859375 Z M 161.832031 218.859375 "/><path style=" stroke:none;fill-rule:nonzero;fill:#000000;fill-opacity:1;" d="M 275.917969 190.425781 C 275.65625 190.425781 275.394531 190.308594 275.222656 190.082031 C 269.722656 182.9375 263.992188 175.816406 258.183594 168.917969 C 258.132812 168.851562 258.085938 168.78125 258.050781 168.703125 C 256.214844 164.511719 252.929688 161.050781 248.550781 158.695312 C 244.261719 156.386719 239.464844 155.320312 235.34375 154.582031 C 228.660156 153.386719 221.832031 152.769531 215.042969 152.746094 C 211.417969 152.730469 206.679688 152.875 202.203125 154.074219 C 197.714844 155.277344 193.964844 157.433594 191.367188 160.308594 C 191.203125 160.488281 190.976562 160.589844 190.734375 160.59375 C 190.496094 160.597656 190.257812 160.503906 190.089844 160.332031 C 188.082031 158.296875 185.523438 157.050781 183.066406 156.914062 C 180.488281 156.777344 177.8125 157.882812 176.085938 159.804688 C 175.761719 160.164062 175.207031 160.191406 174.84375 159.867188 C 174.484375 159.542969 174.457031 158.988281 174.78125 158.628906 C 176.886719 156.285156 180.023438 154.988281 183.164062 155.160156 C 185.785156 155.304688 188.484375 156.5 190.6875 158.472656 C 193.46875 155.679688 197.273438 153.578125 201.75 152.378906 C 206.429688 151.125 211.316406 150.976562 215.046875 150.988281 C 221.9375 151.011719 228.871094 151.640625 235.652344 152.851562 C 239.914062 153.613281 244.878906 154.722656 249.386719 157.144531 C 254.074219 159.667969 257.605469 163.378906 259.613281 167.878906 C 265.40625 174.769531 271.128906 181.875 276.617188 189.011719 C 276.914062 189.394531 276.84375 189.945312 276.457031 190.242188 C 276.296875 190.363281 276.109375 190.425781 275.921875 190.425781 Z M 275.917969 190.425781 "/><path style=" stroke:none;fill-rule:nonzero;fill:#000000;fill-opacity:1;" d="M 226.902344 206.042969 C 224.128906 206.042969 221.285156 205.695312 218.449219 204.992188 C 210.03125 202.90625 202.457031 197.988281 197.128906 191.148438 C 191.828125 184.34375 188.976562 175.949219 189.078125 167.453125 C 187.335938 166.285156 185.246094 165.640625 183.148438 165.621094 C 180.910156 165.601562 178.816406 166.316406 177.207031 167.632812 C 175.816406 180.6875 167.855469 192.695312 156.355469 199.039062 C 151.300781 201.828125 145.917969 203.34375 140.792969 203.417969 C 140.664062 203.417969 140.535156 203.421875 140.410156 203.421875 C 131.328125 203.421875 122.242188 198.785156 116.617188 191.257812 C 111.152344 183.9375 108.996094 174.007812 110.847656 164.691406 C 110.941406 164.214844 111.40625 163.90625 111.882812 164 C 112.355469 164.09375 112.667969 164.558594 112.574219 165.035156 C 110.8125 173.867188 112.851562 183.277344 118.027344 190.203125 C 123.398438 197.394531 132.109375 201.777344 140.765625 201.660156 C 145.605469 201.589844 150.703125 200.152344 155.503906 197.5 C 160.921875 194.511719 165.648438 190.09375 169.179688 184.726562 C 172.710938 179.355469 174.894531 173.265625 175.492188 167.109375 C 175.511719 166.886719 175.617188 166.683594 175.78125 166.535156 C 177.75 164.789062 180.375 163.847656 183.160156 163.863281 C 185.777344 163.882812 188.378906 164.746094 190.488281 166.292969 C 190.71875 166.464844 190.851562 166.734375 190.847656 167.023438 C 190.640625 175.273438 193.363281 183.457031 198.511719 190.066406 C 203.605469 196.597656 210.835938 201.292969 218.875 203.289062 C 227.039062 205.3125 235.234375 204.230469 241.363281 200.3125 C 245.425781 197.714844 248.832031 193.746094 251.21875 188.832031 C 253.261719 184.621094 254.597656 179.605469 255.191406 173.929688 C 255.222656 173.597656 255.449219 173.3125 255.765625 173.195312 C 256.082031 173.082031 256.4375 173.15625 256.679688 173.394531 L 277.023438 193.265625 C 277.371094 193.605469 277.378906 194.164062 277.039062 194.507812 C 276.699219 194.855469 276.140625 194.863281 275.796875 194.523438 L 256.726562 175.894531 C 256.03125 181.050781 254.714844 185.652344 252.796875 189.597656 C 250.273438 194.804688 246.644531 199.023438 242.308594 201.792969 C 237.921875 204.597656 232.558594 206.042969 226.898438 206.042969 Z M 226.902344 206.042969 "/><path style=" stroke:none;fill-rule:nonzero;fill:#000000;fill-opacity:1;" d="M 175.15625 159.925781 C 174.976562 159.925781 174.792969 159.871094 174.636719 159.753906 C 164.644531 152.355469 153.597656 148.140625 142.679688 147.566406 C 129.914062 146.894531 118.738281 150.460938 111.210938 157.605469 C 110.859375 157.941406 110.300781 157.925781 109.96875 157.574219 C 109.632812 157.222656 109.648438 156.664062 110 156.332031 C 117.882812 148.847656 129.519531 145.109375 142.773438 145.8125 C 154.035156 146.40625 165.414062 150.738281 175.683594 158.34375 C 176.074219 158.628906 176.15625 159.179688 175.867188 159.570312 C 175.695312 159.804688 175.429688 159.925781 175.160156 159.925781 Z M 175.15625 159.925781 "/><path style=" stroke:none;fill-rule:nonzero;fill:#000000;fill-opacity:1;" d="M 266.265625 168.394531 C 266.242188 168.394531 266.214844 168.394531 266.191406 168.394531 C 265.933594 168.371094 265.703125 168.238281 265.554688 168.03125 C 255.460938 153.964844 241.964844 142.390625 226.527344 134.558594 C 226.285156 134.4375 226.117188 134.210938 226.0625 133.949219 C 226.011719 133.683594 226.082031 133.410156 226.257812 133.203125 C 234.523438 123.503906 244.175781 115.265625 254.941406 108.722656 C 258.796875 106.382812 263.941406 103.550781 269.542969 102.441406 C 272.628906 101.828125 274.972656 102.101562 276.710938 103.269531 C 279.21875 104.957031 279.953125 108.078125 280.375 111.199219 C 281.980469 123.085938 281.976562 132.65625 280.371094 141.316406 C 278.960938 148.925781 275.472656 159.753906 266.882812 168.144531 C 266.71875 168.308594 266.496094 168.394531 266.269531 168.394531 Z M 228.316406 133.503906 C 243.28125 141.292969 256.40625 152.554688 266.371094 166.164062 C 274.113281 158.199219 277.316406 148.132812 278.640625 140.996094 C 280.214844 132.523438 280.210938 123.128906 278.632812 111.433594 C 278.265625 108.71875 277.660156 106.027344 275.726562 104.730469 C 274.398438 103.835938 272.488281 103.652344 269.886719 104.167969 C 264.582031 105.21875 259.816406 107.820312 255.855469 110.226562 C 245.558594 116.484375 236.300781 124.308594 228.320312 133.503906 Z M 228.316406 133.503906 "/><path style=" stroke:none;fill-rule:nonzero;fill:#000000;fill-opacity:1;" d="M 233.15625 137.582031 C 232.960938 137.582031 232.765625 137.515625 232.605469 137.386719 C 232.226562 137.082031 232.167969 136.527344 232.46875 136.152344 C 239.460938 127.484375 247.890625 120.269531 257.53125 114.703125 C 257.953125 114.460938 258.492188 114.605469 258.734375 115.027344 C 258.976562 115.445312 258.832031 115.984375 258.414062 116.226562 C 248.957031 121.683594 240.691406 128.757812 233.839844 137.253906 C 233.664062 137.46875 233.410156 137.582031 233.152344 137.582031 Z M 233.15625 137.582031 "/><path style=" stroke:none;fill-rule:nonzero;fill:#000000;fill-opacity:1;" d="M 148.421875 136.914062 C 148.136719 136.914062 147.859375 136.777344 147.6875 136.523438 C 142.207031 128.300781 135.007812 120.980469 126.882812 115.359375 C 126.480469 115.082031 126.382812 114.535156 126.660156 114.136719 C 126.933594 113.734375 127.480469 113.636719 127.882812 113.914062 C 136.191406 119.660156 143.546875 127.140625 149.152344 135.546875 C 149.421875 135.953125 149.3125 136.496094 148.910156 136.765625 C 148.757812 136.867188 148.589844 136.914062 148.421875 136.914062 Z M 148.421875 136.914062 "/><path style=" stroke:none;fill-rule:nonzero;fill:#000000;fill-opacity:1;" d="M 115.246094 154.007812 C 114.882812 154.007812 114.542969 153.777344 114.414062 153.414062 C 111.132812 143.988281 110.953125 133.84375 111.160156 126.0625 C 111.308594 120.578125 111.71875 114.273438 114.703125 108.886719 C 115.902344 106.730469 117.265625 105.378906 118.875 104.753906 C 122.003906 103.539062 125.347656 105.316406 127.585938 106.757812 C 140.199219 114.882812 152.140625 127.71875 156.691406 132.859375 C 157.011719 133.222656 156.976562 133.78125 156.613281 134.101562 C 156.25 134.421875 155.695312 134.390625 155.371094 134.027344 C 150.871094 128.9375 139.0625 116.242188 126.632812 108.234375 C 124.714844 107 121.890625 105.464844 119.511719 106.390625 C 118.300781 106.859375 117.230469 107.957031 116.242188 109.738281 C 113.445312 114.777344 113.058594 120.828125 112.917969 126.105469 C 112.710938 133.742188 112.882812 143.675781 116.074219 152.832031 C 116.234375 153.292969 115.992188 153.792969 115.535156 153.953125 C 115.4375 153.988281 115.339844 154.003906 115.246094 154.003906 Z M 115.246094 154.007812 "/><path style=" stroke:none;fill-rule:nonzero;fill:#000000;fill-opacity:1;" d="M 208.65625 260.632812 C 205.832031 260.632812 203.015625 260.523438 200.207031 260.308594 C 199.722656 260.269531 199.363281 259.847656 199.398438 259.363281 C 199.4375 258.878906 199.863281 258.511719 200.34375 258.554688 C 219.054688 260.003906 238.363281 256.511719 256.179688 248.460938 C 256.625 248.261719 257.144531 248.457031 257.34375 248.898438 C 257.546875 249.339844 257.347656 249.863281 256.90625 250.0625 C 241.488281 257.03125 224.964844 260.632812 208.65625 260.632812 Z M 208.65625 260.632812 "/><path style=" stroke:none;fill-rule:nonzero;fill:#000000;fill-opacity:1;" d="M 212.238281 155.402344 C 222.445312 155.402344 227.144531 155.417969 236.398438 157.867188 C 243.304688 159.695312 247.125 162.1875 249.859375 167.035156 C 253.03125 172.664062 251.761719 179.847656 248.859375 185.621094 C 245.550781 192.199219 240.058594 197.867188 233.136719 200.371094 C 225.515625 203.125 216.730469 201.769531 209.773438 197.609375 C 202.824219 193.445312 197.632812 186.695312 194.480469 179.230469 C 192.339844 174.160156 191.167969 168.046875 194.050781 163.359375 C 195.65625 160.75 198.34375 158.949219 201.203125 157.847656 C 204.0625 156.746094 208.71875 155.40625 212.242188 155.40625 Z M 212.238281 155.402344 "/><path style=" stroke:none;fill-rule:nonzero;fill:#000000;fill-opacity:1;" d="M 142.105469 150.410156 C 137.542969 150.097656 132.949219 150.511719 128.546875 151.738281 C 127.671875 151.984375 126.8125 152.257812 125.960938 152.574219 C 122.558594 153.835938 119.339844 155.824219 117.171875 158.730469 C 114.96875 161.683594 113.996094 165.386719 113.648438 169.050781 C 113.136719 174.445312 113.910156 180.011719 116.296875 184.871094 C 118.683594 189.734375 122.742188 193.839844 127.757812 195.875 C 134.042969 198.421875 141.203125 197.59375 147.722656 195.734375 C 153.433594 194.109375 159.089844 191.617188 163.164062 187.296875 C 166.472656 183.785156 168.539062 179.273438 170.023438 174.683594 C 171.226562 170.976562 172.085938 166.9375 170.933594 163.214844 C 169.910156 159.90625 167.367188 157.214844 164.394531 155.441406 C 161.421875 153.664062 158.035156 152.710938 154.640625 152.015625 C 150.675781 151.207031 146.640625 150.722656 142.105469 150.410156 Z M 142.105469 150.410156 "/><path style=" stroke:none;fill-rule:nonzero;fill:#000000;fill-opacity:1;" d="M 304.394531 222.492188 C 304.269531 222.492188 304.140625 222.464844 304.019531 222.410156 C 283.753906 212.84375 261.203125 208.046875 238.804688 208.546875 C 238.324219 208.558594 237.914062 208.171875 237.90625 207.6875 C 237.894531 207.199219 238.28125 206.796875 238.765625 206.789062 C 261.4375 206.289062 284.261719 211.136719 304.769531 220.820312 C 305.207031 221.027344 305.394531 221.550781 305.1875 221.988281 C 305.039062 222.308594 304.722656 222.492188 304.394531 222.492188 Z M 304.394531 222.492188 "/><path style=" stroke:none;fill-rule:nonzero;fill:#000000;fill-opacity:1;" d="M 295.066406 237.46875 C 294.894531 237.46875 294.722656 237.421875 294.570312 237.316406 C 276.871094 225.15625 256.320312 216.871094 235.140625 213.355469 C 234.660156 213.277344 234.335938 212.824219 234.414062 212.34375 C 234.496094 211.867188 234.949219 211.542969 235.425781 211.621094 C 256.859375 215.179688 277.65625 223.5625 295.566406 235.867188 C 295.964844 236.140625 296.066406 236.6875 295.792969 237.089844 C 295.621094 237.335938 295.347656 237.46875 295.066406 237.46875 Z M 295.066406 237.46875 "/><path style=" stroke:none;fill-rule:nonzero;fill:#000000;fill-opacity:1;" d="M 278.398438 247.039062 C 278.179688 247.039062 277.964844 246.960938 277.796875 246.800781 C 263.828125 233.660156 246.726562 223.832031 228.339844 218.378906 C 227.875 218.242188 227.609375 217.753906 227.746094 217.285156 C 227.886719 216.820312 228.375 216.554688 228.839844 216.695312 C 247.488281 222.222656 264.835938 232.191406 279 245.519531 C 279.355469 245.851562 279.371094 246.40625 279.039062 246.761719 C 278.863281 246.945312 278.632812 247.039062 278.398438 247.039062 Z M 278.398438 247.039062 "/><path style=" stroke:none;fill-rule:nonzero;fill:#000000;fill-opacity:1;" d="M 252.460938 246.535156 C 252.195312 246.535156 251.933594 246.417969 251.761719 246.191406 C 244.464844 236.644531 235.089844 228.453125 224.648438 222.507812 C 224.226562 222.269531 224.078125 221.730469 224.320312 221.308594 C 224.5625 220.886719 225.097656 220.738281 225.519531 220.980469 C 236.164062 227.042969 245.722656 235.390625 253.160156 245.125 C 253.453125 245.507812 253.378906 246.0625 252.996094 246.355469 C 252.835938 246.476562 252.648438 246.535156 252.460938 246.535156 Z M 252.460938 246.535156 "/><path style=" stroke:none;fill-rule:nonzero;fill:#000000;fill-opacity:1;" d="M 106.105469 241.078125 C 105.90625 241.078125 105.703125 241.011719 105.539062 240.871094 C 105.167969 240.558594 105.125 240.003906 105.4375 239.628906 C 115.636719 227.546875 127.742188 217.394531 141.417969 209.453125 C 141.835938 209.210938 142.375 209.355469 142.617188 209.773438 C 142.863281 210.191406 142.71875 210.730469 142.300781 210.972656 C 128.800781 218.8125 116.851562 228.835938 106.78125 240.761719 C 106.605469 240.96875 106.359375 241.074219 106.105469 241.074219 Z M 106.105469 241.078125 "/><path style=" stroke:none;fill-rule:nonzero;fill:#000000;fill-opacity:1;" d="M 87.710938 233.984375 C 87.457031 233.984375 87.203125 233.871094 87.03125 233.65625 C 86.722656 233.28125 86.78125 232.726562 87.15625 232.421875 C 100.460938 221.578125 115.371094 213.058594 131.46875 207.105469 C 131.925781 206.933594 132.429688 207.167969 132.597656 207.621094 C 132.765625 208.078125 132.53125 208.582031 132.078125 208.75 C 116.164062 214.636719 101.421875 223.058594 88.265625 233.78125 C 88.101562 233.914062 87.90625 233.980469 87.710938 233.980469 Z M 87.710938 233.984375 "/><path style=" stroke:none;fill-rule:nonzero;fill:#000000;fill-opacity:1;" d="M 78.40625 216.199219 C 78.089844 216.199219 77.78125 216.027344 77.625 215.726562 C 77.402344 215.296875 77.566406 214.765625 77.996094 214.539062 C 94.246094 206.058594 112.519531 201.824219 130.847656 202.289062 C 131.332031 202.300781 131.714844 202.703125 131.703125 203.1875 C 131.691406 203.675781 131.292969 204.054688 130.800781 204.046875 C 112.773438 203.589844 94.796875 207.757812 78.8125 216.101562 C 78.679688 216.167969 78.542969 216.199219 78.402344 216.199219 Z M 78.40625 216.199219 "/><g clip-rule="nonzero" clip-path="url(#03a67f411a)"><path style=" stroke:none;fill-rule:nonzero;fill:#000000;fill-opacity:1;" d="M 118.761719 197.671875 C 118.65625 197.671875 118.546875 197.652344 118.441406 197.609375 C 105.46875 192.527344 91.296875 190.695312 77.457031 192.316406 C 76.972656 192.371094 76.539062 192.027344 76.480469 191.546875 C 76.425781 191.066406 76.769531 190.628906 77.253906 190.570312 C 91.378906 188.917969 105.84375 190.785156 119.082031 195.972656 C 119.535156 196.148438 119.757812 196.65625 119.582031 197.109375 C 119.445312 197.457031 119.113281 197.671875 118.761719 197.671875 Z M 118.761719 197.671875 "/></g><path style=" stroke:none;fill-rule:nonzero;fill:#000000;fill-opacity:1;" d="M 141.859375 253.03125 C 141.804688 253.03125 141.746094 253.027344 141.691406 253.015625 C 141.65625 253.011719 141.605469 253.007812 141.535156 253 C 137.53125 252.59375 133.089844 251.507812 128.6875 249.867188 C 128.230469 249.699219 128 249.191406 128.167969 248.738281 C 128.335938 248.28125 128.84375 248.050781 129.300781 248.21875 C 133.566406 249.808594 137.859375 250.855469 141.710938 251.25 C 141.96875 251.273438 142.046875 251.285156 142.164062 251.328125 C 142.621094 251.496094 142.851562 252.003906 142.679688 252.457031 C 142.550781 252.8125 142.214844 253.03125 141.855469 253.03125 Z M 141.710938 253.019531 Z M 141.550781 252.976562 Z M 141.550781 252.976562 Z M 141.550781 252.976562 "/><path style=" stroke:none;fill-rule:nonzero;fill:#000000;fill-opacity:1;" d="M 133.445312 147.484375 C 133.203125 147.484375 132.964844 147.386719 132.792969 147.195312 C 132.464844 146.835938 132.492188 146.28125 132.851562 145.953125 C 146.632812 133.460938 163.980469 129.390625 176.109375 128.179688 C 190.496094 126.746094 207.917969 127.890625 222.714844 131.246094 C 223.191406 131.351562 223.484375 131.824219 223.378906 132.296875 C 223.269531 132.769531 222.800781 133.066406 222.328125 132.957031 C 207.703125 129.644531 190.488281 128.511719 176.285156 129.929688 C 164.417969 131.113281 147.457031 135.082031 134.03125 147.253906 C 133.863281 147.40625 133.652344 147.484375 133.441406 147.484375 Z M 133.445312 147.484375 "/><g mask="url(#bb4dee548e)" transform="matrix(1,0,0,1,203,157)"><g clip-path="url(#57777f978a)"><g clip-rule="nonzero" clip-path="url(#7f666df411)"><path style=" stroke:none;fill-rule:nonzero;fill:#ffffff;fill-opacity:1;" d="M 1.148438 2.234375 C 5.222656 3.441406 8.964844 5.421875 12.582031 7.625 C 22.382812 13.589844 31.84375 22.566406 36.332031 33.425781 C 36.496094 33.421875 36.664062 33.414062 36.832031 33.410156 C 31.859375 23.515625 26.882812 13.625 21.910156 3.730469 C 26.039062 7.960938 29.398438 12.945312 31.765625 18.363281 C 34.648438 15.671875 40.105469 11.347656 43.167969 8.546875 C 41.230469 7.550781 39.257812 6.625 37.25 5.816406 C 29.355469 2.644531 20.84375 0.929688 12.332031 1.019531 C 8.429688 1.058594 4.566406 1.433594 0.730469 2.109375 C 0.875 2.152344 1.015625 2.195312 1.148438 2.234375 Z M 1.148438 2.234375 "/></g></g><mask id="bb4dee548e"><g filter="url(#42a1a1a144)"><rect x="0" width="375" y="0" height="374.999991" style="fill:#000000;fill-opacity:0.41;stroke:none;"/></g></mask></g><g mask="url(#7d1589edc6)" transform="matrix(1,0,0,1,120,153)"><g clip-path="url(#3b238f5446)"><g clip-rule="nonzero" clip-path="url(#5107bb6f26)"><path style=" stroke:none;fill-rule:nonzero;fill:#ffffff;fill-opacity:1;" d="M 1.707031 4.289062 C 5.914062 4.890625 9.902344 6.3125 13.800781 7.96875 C 24.359375 12.453125 35.023438 19.96875 41.03125 30.066406 C 41.199219 30.035156 41.363281 30.003906 41.527344 29.976562 C 35.171875 20.90625 28.820312 11.835938 22.46875 2.765625 C 27.167969 6.355469 31.210938 10.800781 34.335938 15.820312 C 36.800781 12.742188 41.574219 7.671875 44.203125 4.457031 C 42.136719 3.753906 40.054688 3.121094 37.949219 2.613281 C 29.679688 0.617188 21.007812 0.152344 12.597656 1.472656 C 8.742188 2.078125 4.976562 3.003906 1.277344 4.230469 C 1.425781 4.25 1.570312 4.273438 1.707031 4.292969 Z M 1.707031 4.289062 "/></g></g><mask id="7d1589edc6"><g filter="url(#42a1a1a144)"><rect x="0" width="375" y="0" height="374.999991" style="fill:#000000;fill-opacity:0.41;stroke:none;"/></g></mask></g></g></svg>